<mxfile host="app.diagrams.net" modified="2023-09-19T20:32:31.253Z" agent="Mozilla/5.0 (Windows NT 10.0; Win64; x64) AppleWebKit/537.36 (KHTML, like Gecko) Chrome/116.0.0.0 Safari/537.36" etag="0sKRtA8szLTTH4gW5A1U" version="21.7.4" type="github">
  <diagram name="Page-1" id="lCDHvuFwO_Oo8ZvdKnjj">
    <mxGraphModel dx="2537" dy="892" grid="0" gridSize="10" guides="0" tooltips="1" connect="1" arrows="1" fold="1" page="1" pageScale="1" pageWidth="850" pageHeight="1100" math="0" shadow="0">
      <root>
        <mxCell id="0" />
        <mxCell id="1" parent="0" />
        <mxCell id="qOTQIHq2Qko7lhdbGlyr-1" value="NumberOfCountyReportsToChargeCount = County Criminal Checks - 1" style="rounded=0;whiteSpace=wrap;html=1;strokeColor=#999999;fillColor=#FFFFFF;labelBackgroundColor=none;" vertex="1" parent="1">
          <mxGeometry x="5" y="41" width="253" height="60" as="geometry" />
        </mxCell>
        <mxCell id="qOTQIHq2Qko7lhdbGlyr-6" value="" style="endArrow=classic;html=1;rounded=0;strokeColor=#999999;fillColor=#FFFFFF;labelBackgroundColor=none;" edge="1" parent="1">
          <mxGeometry width="50" height="50" relative="1" as="geometry">
            <mxPoint x="381" y="72" as="sourcePoint" />
            <mxPoint x="411" y="72" as="targetPoint" />
          </mxGeometry>
        </mxCell>
        <mxCell id="qOTQIHq2Qko7lhdbGlyr-7" value="OrderCounties" style="rounded=0;whiteSpace=wrap;html=1;strokeColor=#999999;fillColor=#FFFFFF;labelBackgroundColor=none;" vertex="1" parent="1">
          <mxGeometry x="290" y="41" width="89" height="60" as="geometry" />
        </mxCell>
        <mxCell id="qOTQIHq2Qko7lhdbGlyr-8" value="" style="endArrow=classic;html=1;rounded=0;" edge="1" parent="1">
          <mxGeometry width="50" height="50" relative="1" as="geometry">
            <mxPoint x="1960" y="350" as="sourcePoint" />
            <mxPoint x="1990" y="350" as="targetPoint" />
          </mxGeometry>
        </mxCell>
        <mxCell id="qOTQIHq2Qko7lhdbGlyr-9" value="CountyAddonController invoked" style="rounded=0;whiteSpace=wrap;html=1;strokeColor=#999999;fillColor=#FFFFFF;labelBackgroundColor=none;" vertex="1" parent="1">
          <mxGeometry x="-167" y="41" width="138" height="60" as="geometry" />
        </mxCell>
        <mxCell id="qOTQIHq2Qko7lhdbGlyr-10" value="" style="endArrow=classic;html=1;rounded=0;strokeColor=#999999;fillColor=#FFFFFF;labelBackgroundColor=none;" edge="1" parent="1">
          <mxGeometry width="50" height="50" relative="1" as="geometry">
            <mxPoint x="-29" y="71" as="sourcePoint" />
            <mxPoint x="1" y="71" as="targetPoint" />
          </mxGeometry>
        </mxCell>
        <mxCell id="qOTQIHq2Qko7lhdbGlyr-11" value="StartCountyCheckJob" style="rounded=0;whiteSpace=wrap;html=1;strokeColor=#999999;fillColor=#FFFFFF;labelBackgroundColor=none;" vertex="1" parent="1">
          <mxGeometry x="580" y="41" width="129" height="60" as="geometry" />
        </mxCell>
        <mxCell id="qOTQIHq2Qko7lhdbGlyr-12" value="" style="endArrow=classic;html=1;rounded=0;strokeColor=#999999;fillColor=#FFFFFF;labelBackgroundColor=none;" edge="1" parent="1">
          <mxGeometry width="50" height="50" relative="1" as="geometry">
            <mxPoint x="550" y="71" as="sourcePoint" />
            <mxPoint x="580" y="71" as="targetPoint" />
          </mxGeometry>
        </mxCell>
        <mxCell id="qOTQIHq2Qko7lhdbGlyr-13" value="" style="endArrow=classic;html=1;rounded=0;strokeColor=#999999;fillColor=#FFFFFF;labelBackgroundColor=none;" edge="1" parent="1">
          <mxGeometry width="50" height="50" relative="1" as="geometry">
            <mxPoint x="261" y="71" as="sourcePoint" />
            <mxPoint x="291" y="71" as="targetPoint" />
          </mxGeometry>
        </mxCell>
        <mxCell id="qOTQIHq2Qko7lhdbGlyr-14" value="County Criminal Check saved event" style="rounded=0;whiteSpace=wrap;html=1;strokeColor=#999999;fillColor=#FFFFFF;labelBackgroundColor=none;" vertex="1" parent="1">
          <mxGeometry x="411" y="41" width="138" height="60" as="geometry" />
        </mxCell>
      </root>
    </mxGraphModel>
  </diagram>
</mxfile>
